<svg width="125" height="168" viewBox="0 0 125 168" fill="none" xmlns="http://www.w3.org/2000/svg">
<path d="M108.277 142.117L108.277 137.7C109.119 137.7 109.937 137.7 110.731 137.7C111.573 137.7 112.367 137.7 113.115 137.7C113.91 137.7 114.658 137.7 115.359 137.7C116.107 137.7 116.855 137.7 117.603 137.7C118.351 137.653 119.075 137.63 119.776 137.63C119.776 138.004 119.753 138.471 119.706 139.032C119.706 139.593 119.706 140.154 119.706 140.715C119.706 141.276 119.706 141.767 119.706 142.187C119.052 142.187 118.351 142.187 117.603 142.187C116.855 142.14 116.107 142.117 115.359 142.117C114.658 142.117 113.91 142.117 113.115 142.117C112.321 142.117 111.526 142.117 110.731 142.117C109.937 142.117 109.119 142.117 108.277 142.117ZM120.057 166.588L104 166.588C104.093 164.531 104.14 162.171 104.14 159.506C104.14 156.842 104.14 153.92 104.14 150.742C104.14 147.516 104.14 144.034 104.14 140.294C104.14 137.489 104.14 134.802 104.14 132.231C104.14 129.613 104.14 127.182 104.14 124.938C104.187 122.648 104.187 120.568 104.14 118.698C104.14 116.828 104.117 115.262 104.07 114L120.057 114C120.057 114.28 120.057 114.631 120.057 115.052C120.057 115.426 120.057 115.8 120.057 116.174C120.057 116.594 120.057 117.038 120.057 117.506C120.057 117.973 120.057 118.371 120.057 118.698C119.169 118.651 118.304 118.628 117.463 118.628C116.621 118.581 115.78 118.558 114.938 118.558C114.097 118.558 113.279 118.558 112.484 118.558C111.69 118.558 110.918 118.558 110.17 118.558C109.469 118.558 108.791 118.558 108.137 118.558L109.259 115.823C109.259 117.319 109.259 118.861 109.259 120.451C109.259 122.04 109.235 123.676 109.189 125.359C109.189 126.995 109.189 128.655 109.189 130.337C109.189 131.973 109.189 133.586 109.189 135.175C109.189 136.718 109.189 138.191 109.189 139.593C109.189 141.977 109.189 144.174 109.189 146.184C109.189 148.147 109.189 149.97 109.189 151.653C109.189 153.289 109.189 154.832 109.189 156.281C109.189 157.683 109.189 159.039 109.189 160.348C109.189 161.61 109.212 162.872 109.259 164.134L108.137 161.96C108.791 161.96 109.469 161.96 110.17 161.96C110.918 161.96 111.69 161.96 112.484 161.96C113.326 161.96 114.144 161.96 114.938 161.96C115.78 161.96 116.621 161.96 117.463 161.96C118.351 161.914 119.215 161.89 120.057 161.89C120.057 162.171 120.057 162.545 120.057 163.012C120.057 163.433 120.057 163.854 120.057 164.274C120.057 164.601 120.057 164.999 120.057 165.466C120.057 165.887 120.057 166.261 120.057 166.588Z" fill="#FFF9EE"/>
<path d="M100.182 166.588L84.1404 166.588C84.1404 165.98 84.1404 164.812 84.1404 163.082C84.1404 161.353 84.1404 159.249 84.1404 156.772C84.1872 154.294 84.2105 151.63 84.2105 148.778C84.2105 145.927 84.2105 143.099 84.2105 140.294C84.2105 135.994 84.2105 132.184 84.2105 128.865C84.2105 125.499 84.2105 122.578 84.2105 120.1C84.2105 117.623 84.1638 115.589 84.0703 114L89.3291 114C89.2824 114.935 89.2356 116.033 89.1889 117.296C89.1889 118.558 89.1655 119.96 89.1188 121.503C89.1188 123.045 89.1188 124.775 89.1188 126.691C89.1188 128.561 89.1188 130.618 89.1188 132.862C89.1188 135.059 89.1188 137.489 89.1188 140.154C89.1188 142.257 89.1188 144.478 89.1188 146.815C89.1188 149.152 89.1188 151.443 89.1188 153.687C89.1655 155.884 89.1889 157.847 89.1889 159.576C89.1889 161.306 89.1889 162.615 89.1889 163.503L87.9969 162.03C88.6046 162.03 89.2824 162.03 90.0303 162.03C90.7782 162.03 91.5495 162.03 92.3442 162.03C93.1388 161.984 93.9335 161.96 94.7282 161.96C95.5696 161.914 99.3876 161.867 100.182 161.82C100.182 162.147 100.182 162.521 100.182 162.942C100.182 163.316 100.182 163.713 100.182 164.134C100.182 164.555 100.182 164.975 100.182 165.396C100.182 165.817 100.182 166.214 100.182 166.588Z" fill="#FFF9EE"/>
<path d="M74.1381 135.877C74.1849 135.035 74.2083 134.194 74.2083 133.353C74.2083 132.511 74.2083 131.74 74.2083 131.039C74.255 130.291 74.2784 129.66 74.2784 129.146C74.2784 126.06 74.1148 123.723 73.7876 122.134C73.4603 120.544 72.9695 119.469 72.3151 118.908C71.6607 118.347 70.866 118.067 69.9311 118.067C69.3234 118.067 68.7391 118.207 68.1782 118.488C67.664 118.768 67.1965 119.329 66.7758 120.17C66.4018 120.965 66.0746 122.181 65.7942 123.817C65.5137 125.406 65.3033 127.509 65.1631 130.127C65.0229 132.745 64.9528 136.017 64.9528 139.944C64.9527 143.917 65.0229 147.259 65.1631 149.97C65.3033 152.635 65.5137 154.809 65.7942 156.491C66.0746 158.127 66.4018 159.39 66.7758 160.278C67.1965 161.166 67.664 161.774 68.1781 162.101C68.7391 162.381 69.3468 162.521 70.0012 162.521C71.0763 162.521 71.9411 162.147 72.5956 161.4C73.25 160.605 73.7174 159.319 73.9979 157.543C74.2784 155.72 74.4186 153.336 74.4186 150.391C74.4186 149.409 74.4186 148.498 74.4186 147.657C74.4186 146.815 74.3952 145.904 74.3485 144.922C74.629 144.922 74.8861 144.922 75.1198 144.922C75.4003 144.922 75.6573 144.922 75.8911 144.922C76.1715 144.922 76.4754 144.922 76.8026 144.922C77.1766 144.922 77.5505 144.922 77.9245 144.922C78.3452 144.922 78.7659 144.922 79.1866 144.922C79.2333 145.436 79.2567 145.95 79.2567 146.465C79.2567 146.932 79.2567 147.423 79.2567 147.937C79.2567 148.404 79.2567 148.942 79.2567 149.55C79.2567 151.887 79.1398 153.99 78.9061 155.86C78.7191 157.73 78.3919 159.366 77.9245 160.769C77.457 162.171 76.8493 163.363 76.1014 164.345C75.4003 165.279 74.5355 165.981 73.5071 166.448C72.5254 166.915 71.3568 167.149 70.0012 167.149C68.5989 167.149 67.3601 166.915 66.285 166.448C65.2098 165.981 64.2516 165.163 63.4102 163.994C62.6155 162.779 61.9611 161.142 61.4469 159.086C60.9327 157.029 60.5353 154.435 60.2549 151.303C60.0212 148.171 59.9043 144.408 59.9043 140.014C59.9043 135.666 60.0212 131.974 60.2549 128.935C60.5354 125.85 60.9327 123.302 61.4469 121.292C61.9611 119.282 62.6155 117.716 63.4102 116.594C64.2516 115.426 65.2098 114.608 66.285 114.14C67.4069 113.673 68.669 113.439 70.0713 113.439C71.4269 113.439 72.5956 113.626 73.5772 114C74.6056 114.374 75.447 114.982 76.1014 115.823C76.8026 116.618 77.3635 117.646 77.7843 118.908C78.2517 120.17 78.5789 121.666 78.7659 123.396C78.9996 125.079 79.1165 127.019 79.1165 129.216C79.1165 129.964 79.0931 130.711 79.0464 131.459C79.0464 132.161 79.0464 132.885 79.0464 133.633C79.0464 134.334 79.023 135.082 78.9762 135.877C78.6023 135.83 78.205 135.807 77.7842 135.807C77.3635 135.807 76.9428 135.807 76.5221 135.807C76.2417 135.807 75.9612 135.807 75.6807 135.807C75.447 135.807 75.1899 135.807 74.9094 135.807C74.6757 135.807 74.4186 135.83 74.1381 135.877Z" fill="#FFF9EE"/>
<path d="M36.9043 114L46.1598 114C47.6556 114 48.9645 114.234 50.0864 114.701C51.255 115.169 52.2133 115.987 52.9612 117.155C53.7559 118.277 54.3402 119.867 54.7141 121.923C55.1348 123.933 55.3452 126.458 55.3452 129.496C55.3452 132.207 55.1816 134.521 54.8544 136.438C54.5739 138.354 54.0831 139.92 53.3819 141.135C52.7275 142.351 51.8393 143.262 50.7174 143.87C49.5956 144.478 48.2166 144.782 46.5805 144.782L49.1748 143.449L49.1748 145.553L46.5805 144.361C47.9829 144.454 49.1515 144.641 50.0864 144.922C51.0213 145.202 51.7926 145.693 52.4003 146.394C53.0079 147.049 53.5221 148.077 53.9428 149.479C54.3635 150.835 54.7375 152.681 55.0647 155.019C55.3452 156.515 55.5789 157.987 55.7659 159.436C55.9996 160.885 56.21 162.241 56.3969 163.503C56.6307 164.718 56.841 165.747 57.028 166.588L52.3301 166.588C52.0497 166.588 51.8393 166.518 51.6991 166.378C51.5588 166.238 51.442 166.004 51.3485 165.677C51.255 165.349 51.1381 164.929 50.9979 164.414C50.6239 161.142 50.2967 158.431 50.0163 156.281C49.7358 154.084 49.4553 152.331 49.1748 151.022C48.8944 149.666 48.5905 148.638 48.2633 147.937C47.9361 147.236 47.5388 146.792 47.0713 146.605C46.6506 146.371 46.1364 146.254 45.5287 146.254C45.2015 146.254 44.9211 146.254 44.6873 146.254C44.4536 146.254 44.1965 146.277 43.916 146.324C43.6823 146.324 43.4486 146.324 43.2149 146.324C42.9811 146.324 42.724 146.348 42.4436 146.394C42.2098 146.394 41.906 146.394 41.532 146.394L41.3918 141.907C41.532 141.907 41.719 141.907 41.9528 141.907C42.2332 141.907 42.5604 141.93 42.9344 141.977C43.3084 141.977 43.7291 141.977 44.1965 141.977C44.664 141.977 45.1782 141.977 45.7391 141.977C46.8142 141.977 47.7024 141.556 48.4036 140.715C49.1047 139.827 49.6189 138.541 49.9461 136.858C50.3201 135.129 50.5071 132.978 50.5071 130.407C50.5071 127.79 50.3902 125.686 50.1565 124.097C49.9695 122.508 49.6423 121.316 49.1749 120.521C48.7541 119.68 48.2166 119.119 47.5622 118.838C46.9077 118.558 46.1364 118.417 45.2483 118.417C45.108 118.417 44.8977 118.417 44.6172 118.417C44.3835 118.417 44.103 118.417 43.7758 118.417C43.4953 118.417 43.1915 118.441 42.8643 118.488C42.5371 118.488 42.2099 118.488 41.8826 118.488C41.5554 118.488 41.2516 118.511 40.9711 118.558C40.7374 118.558 40.5504 118.558 40.4102 118.558L41.8125 116.104C41.8125 121.105 41.8125 126.084 41.8125 131.039C41.8125 135.994 41.8125 140.715 41.8125 145.202C41.8593 149.69 41.906 153.78 41.9527 157.473C41.9995 161.119 42.0696 164.157 42.1631 166.588L36.9043 166.588C36.9043 164.064 36.9043 161.493 36.9043 158.875C36.951 156.257 36.9744 153.453 36.9744 150.461C37.0212 147.423 37.0445 144.034 37.0445 140.294C37.0445 134.731 37.0212 129.917 36.9744 125.85C36.9277 121.736 36.9043 117.786 36.9043 114Z" fill="#FFF9EE"/>
<path d="M30.2588 166.588L25 166.588C25.0467 165.046 25.0701 163.339 25.0701 161.47C25.1169 159.6 25.1402 157.566 25.1402 155.369C25.1402 153.172 25.1402 150.812 25.1402 148.287C25.1402 145.763 25.1402 143.099 25.1402 140.294C25.1402 137.489 25.1402 134.825 25.1402 132.301C25.1402 129.776 25.1402 127.416 25.1402 125.219C25.1402 122.975 25.1169 120.918 25.0701 119.048C25.0701 117.179 25.0467 115.496 25 114L30.2588 114C30.2121 115.496 30.1653 117.179 30.1186 119.048C30.1186 120.918 30.1186 122.952 30.1186 125.149C30.1186 127.346 30.1186 129.73 30.1186 132.301C30.1186 134.825 30.1186 137.489 30.1186 140.294C30.1186 143.099 30.1186 145.763 30.1186 148.287C30.1186 150.765 30.1186 153.102 30.1186 155.299C30.1186 157.496 30.1186 159.553 30.1186 161.47C30.1653 163.339 30.2121 165.046 30.2588 166.588Z" fill="#FFF9EE"/>
<path d="M14.2338 135.877C14.2806 135.035 14.304 134.194 14.304 133.353C14.304 132.511 14.304 131.74 14.304 131.039C14.3507 130.291 14.3741 129.66 14.3741 129.146C14.3741 126.06 14.2105 123.723 13.8833 122.134C13.556 120.544 13.0652 119.469 12.4108 118.908C11.7564 118.347 10.9617 118.067 10.0268 118.067C9.41912 118.067 8.8348 118.207 8.27386 118.488C7.75967 118.768 7.29222 119.329 6.87151 120.17C6.49755 120.965 6.17034 122.181 5.88987 123.817C5.6094 125.406 5.39904 127.509 5.25881 130.127C5.11857 132.745 5.04846 136.017 5.04845 139.944C5.04845 143.917 5.11857 147.259 5.2588 149.97C5.39904 152.635 5.60939 154.809 5.88986 156.491C6.17033 158.127 6.49755 159.39 6.87151 160.278C7.29221 161.166 7.75966 161.774 8.27385 162.101C8.83479 162.381 9.44248 162.521 10.0969 162.521C11.172 162.521 12.0368 162.147 12.6913 161.4C13.3457 160.605 13.8131 159.319 14.0936 157.543C14.3741 155.72 14.5143 153.336 14.5143 150.391C14.5143 149.409 14.5143 148.498 14.5143 147.657C14.5143 146.815 14.4909 145.904 14.4442 144.922C14.7247 144.922 14.9818 144.922 15.2155 144.922C15.496 144.922 15.7531 144.922 15.9868 144.922C16.2673 144.922 16.5711 144.922 16.8983 144.922C17.2723 144.922 17.6462 144.922 18.0202 144.922C18.4409 144.922 18.8616 144.922 19.2823 144.922C19.329 145.436 19.3524 145.95 19.3524 146.465C19.3524 146.932 19.3524 147.423 19.3524 147.937C19.3524 148.404 19.3524 148.942 19.3524 149.55C19.3524 151.887 19.2356 153.99 19.0018 155.86C18.8148 157.73 18.4876 159.366 18.0202 160.769C17.5527 162.171 16.945 163.363 16.1971 164.345C15.496 165.279 14.6312 165.981 13.6028 166.448C12.6211 166.915 11.4525 167.149 10.0969 167.149C8.69456 167.149 7.45582 166.915 6.38068 166.448C5.30555 165.981 4.34728 165.163 3.50587 163.994C2.7112 162.779 2.05677 161.142 1.54258 159.086C1.02838 157.029 0.63105 154.435 0.350581 151.303C0.116856 148.171 -5.41471e-06 144.408 -4.64644e-06 140.014C-3.88633e-06 135.666 0.116859 131.974 0.350585 128.935C0.631055 125.85 1.02839 123.302 1.54258 121.292C2.05678 119.282 2.71121 117.716 3.50587 116.594C4.34728 115.426 5.30556 114.608 6.38069 114.14C7.50257 113.673 8.76469 113.439 10.167 113.439C11.5226 113.439 12.6913 113.626 13.6729 114C14.7013 114.374 15.5427 114.982 16.1971 115.823C16.8983 116.618 17.4593 117.646 17.88 118.908C18.3474 120.17 18.6746 121.666 18.8616 123.396C19.0953 125.079 19.2122 127.019 19.2122 129.216C19.2122 129.964 19.1888 130.711 19.1421 131.459C19.1421 132.161 19.1421 132.885 19.1421 133.633C19.1421 134.334 19.1187 135.082 19.0719 135.877C18.698 135.83 18.3007 135.807 17.88 135.807C17.4592 135.807 17.0385 135.807 16.6178 135.807C16.3374 135.807 16.0569 135.807 15.7764 135.807C15.5427 135.807 15.2856 135.807 15.0051 135.807C14.7714 135.807 14.5143 135.83 14.2338 135.877Z" fill="#FFF9EE"/>
<path d="M104 57L113.256 57C114.751 57 116.06 57.2337 117.182 57.7012C118.351 58.1686 119.309 58.9867 120.057 60.1553C120.852 61.2772 121.436 62.8665 121.81 64.9233C122.231 66.9333 122.441 69.4575 122.441 72.496C122.441 75.2072 122.277 77.5211 121.95 79.4376C121.67 81.3541 121.179 82.9201 120.478 84.1355C119.823 85.3508 118.935 86.2624 117.813 86.8701C116.691 87.4777 115.312 87.7816 113.676 87.7816L116.271 86.4493L116.271 88.5529L113.676 87.3609C115.079 87.4544 116.247 87.6413 117.182 87.9218C118.117 88.2023 118.888 88.6931 119.496 89.3943C120.104 90.0487 120.618 91.0771 121.039 92.4794C121.459 93.8351 121.833 95.6815 122.16 98.0187C122.441 99.5146 122.675 100.987 122.862 102.436C123.095 103.885 123.306 105.241 123.493 106.503C123.726 107.718 123.937 108.747 124.124 109.588L119.426 109.588C119.145 109.588 118.935 109.518 118.795 109.378C118.655 109.238 118.538 109.004 118.444 108.677C118.351 108.349 118.234 107.929 118.094 107.414C117.72 104.142 117.392 101.431 117.112 99.2808C116.831 97.0838 116.551 95.3309 116.271 94.022C115.99 92.6664 115.686 91.638 115.359 90.9369C115.032 90.2357 114.634 89.7916 114.167 89.6046C113.746 89.3709 113.232 89.254 112.624 89.254C112.297 89.254 112.017 89.254 111.783 89.254C111.549 89.254 111.292 89.2774 111.012 89.3242C110.778 89.3242 110.544 89.3242 110.311 89.3242C110.077 89.3242 109.82 89.3475 109.539 89.3943C109.306 89.3943 109.002 89.3943 108.628 89.3943L108.488 84.9068C108.628 84.9068 108.815 84.9068 109.048 84.9068C109.329 84.9068 109.656 84.9301 110.03 84.9769C110.404 84.9769 110.825 84.9769 111.292 84.9769C111.76 84.9769 112.274 84.9769 112.835 84.9769C113.91 84.9769 114.798 84.5562 115.499 83.7148C116.2 82.8266 116.715 81.5411 117.042 79.8583C117.416 78.1287 117.603 75.9785 117.603 73.4075C117.603 70.7898 117.486 68.6863 117.252 67.0969C117.065 65.5076 116.738 64.3156 116.271 63.5209C115.85 62.6795 115.312 62.1186 114.658 61.8381C114.003 61.5576 113.232 61.4174 112.344 61.4174C112.204 61.4174 111.993 61.4174 111.713 61.4174C111.479 61.4174 111.199 61.4174 110.872 61.4174C110.591 61.4174 110.287 61.4408 109.96 61.4875C109.633 61.4875 109.306 61.4875 108.978 61.4875C108.651 61.4875 108.347 61.5109 108.067 61.5576C107.833 61.5576 107.646 61.5576 107.506 61.5576L108.908 59.1035C108.908 64.1052 108.908 69.0836 108.908 74.0386C108.908 78.9935 108.908 83.7148 108.908 88.2023C108.955 92.6898 109.002 96.78 109.048 100.473C109.095 104.119 109.165 107.157 109.259 109.588L104 109.588C104 107.064 104 104.493 104 101.875C104.047 99.2575 104.07 96.4528 104.07 93.4611C104.117 90.4227 104.14 87.0337 104.14 83.2941C104.14 77.7314 104.117 72.9167 104.07 68.8499C104.023 64.7363 104 60.7863 104 57Z" fill="#FFF9EE"/>
<path d="M88.4022 85.1171L88.4022 80.6997C89.2436 80.6997 90.0616 80.6997 90.8563 80.6997C91.6977 80.6997 92.4923 80.6997 93.2403 80.6997C94.0349 80.6997 94.7829 80.6997 95.484 80.6997C96.2319 80.6997 96.9799 80.6997 97.7278 80.6997C98.4757 80.653 99.2002 80.6296 99.9014 80.6296C99.9014 81.0036 99.8781 81.471 99.8313 82.0319C99.8313 82.5929 99.8313 83.1538 99.8313 83.7148C99.8313 84.2757 99.8313 84.7665 99.8313 85.1872C99.1769 85.1872 98.4757 85.1872 97.7278 85.1872C96.9799 85.1405 96.2319 85.1171 95.484 85.1171C94.7829 85.1171 94.0349 85.1171 93.2403 85.1171C92.4456 85.1171 91.6509 85.1171 90.8563 85.1171C90.0616 85.1171 89.2436 85.1171 88.4022 85.1171ZM100.182 109.588L84.125 109.588C84.2185 107.531 84.2652 105.171 84.2652 102.506C84.2652 99.8418 84.2652 96.9202 84.2652 93.7416C84.2652 90.5162 84.2652 87.0337 84.2652 83.2941C84.2652 80.4894 84.2652 77.8015 84.2652 75.2305C84.2652 72.6128 84.2652 70.1821 84.2652 67.9383C84.312 65.6478 84.312 63.5677 84.2652 61.6979C84.2652 59.8281 84.2419 58.2621 84.1951 57L100.182 57C100.182 57.2805 100.182 57.6311 100.182 58.0518C100.182 58.4257 100.182 58.7997 100.182 59.1736C100.182 59.5943 100.182 60.0384 100.182 60.5059C100.182 60.9733 100.182 61.3707 100.182 61.6979C99.2937 61.6511 98.429 61.6278 97.5876 61.6278C96.7461 61.581 95.9047 61.5576 95.0633 61.5576C94.2219 61.5576 93.4039 61.5576 92.6092 61.5576C91.8145 61.5576 91.0433 61.5576 90.2953 61.5576C89.5942 61.5576 88.9164 61.5576 88.2619 61.5576L89.3838 58.8231C89.3838 60.3189 89.3838 61.8615 89.3838 63.4508C89.3838 65.0401 89.3604 66.6762 89.3137 68.359C89.3137 69.9951 89.3137 71.6546 89.3137 73.3374C89.3137 74.9734 89.3137 76.5862 89.3137 78.1755C89.3137 79.7181 89.3137 81.1905 89.3137 82.5929C89.3137 84.9769 89.3137 87.1739 89.3137 89.1839C89.3137 91.1472 89.3137 92.9703 89.3137 94.6531C89.3137 96.2892 89.3137 97.8318 89.3137 99.2808C89.3137 100.683 89.3137 102.039 89.3137 103.348C89.3137 104.61 89.3371 105.872 89.3838 107.134L88.2619 104.96C88.9164 104.96 89.5942 104.96 90.2953 104.96C91.0432 104.96 91.8145 104.96 92.6092 104.96C93.4506 104.96 94.2687 104.96 95.0633 104.96C95.9047 104.96 96.7461 104.96 97.5875 104.96C98.4757 104.914 99.3405 104.89 100.182 104.89C100.182 105.171 100.182 105.545 100.182 106.012C100.182 106.433 100.182 106.854 100.182 107.274C100.182 107.601 100.182 107.999 100.182 108.466C100.182 108.887 100.182 109.261 100.182 109.588Z" fill="#FFF9EE"/>
<path d="M73.6131 82.5229C74.0806 82.5229 74.5948 82.5229 75.1557 82.5229C75.7634 82.5229 76.3711 82.5229 76.9788 82.5229C77.6332 82.4762 78.2643 82.4528 78.872 82.4528L76.0673 86.5897C75.7868 86.5897 75.4596 86.5897 75.0856 86.5897C74.7584 86.5897 74.3844 86.5897 73.9637 86.5897C73.5898 86.5897 73.1691 86.5897 72.7016 86.5897C72.2809 86.5897 71.8602 86.5897 71.4395 86.5897C71.0188 86.5897 70.5981 86.6131 70.1774 86.6598C69.7567 86.6598 69.3593 86.6598 68.9854 86.6598C68.9854 86.5196 68.9854 86.3326 68.9854 86.0989C68.9854 85.8184 68.9854 85.5613 68.9854 85.3276C68.9854 85.0939 68.9854 84.8835 68.9854 84.6966C68.9854 84.2758 68.9854 83.8785 68.9854 83.5046C68.9854 83.0839 68.9854 82.7333 68.9854 82.4528C69.8735 82.4528 70.715 82.4762 71.5096 82.5229C72.3043 82.5229 73.0055 82.5229 73.6131 82.5229ZM74.104 76.4928C74.1507 75.8851 74.1741 75.2774 74.1741 74.6698C74.1741 74.0153 74.1741 73.4076 74.1741 72.8467C74.2208 72.239 74.2442 71.7482 74.2442 71.3742C74.2442 68.6163 74.0806 66.4894 73.7534 64.9935C73.4729 63.4977 73.0055 62.4693 72.351 61.9084C71.7433 61.3007 70.9487 60.9968 69.967 60.9968C69.1256 60.9968 68.3543 61.2773 67.6532 61.8383C66.9987 62.3524 66.4144 63.3575 65.9002 64.8533C65.4328 66.3491 65.0822 68.5462 64.8485 71.4443C64.6147 74.2958 64.4979 78.0588 64.4979 82.7333C64.4979 87.4545 64.5914 91.3343 64.7783 94.3728C65.0121 97.3644 65.3393 99.6783 65.76 101.314C66.2274 102.95 66.8117 104.096 67.5129 104.75C68.2141 105.358 69.0321 105.662 69.967 105.662C70.9487 105.662 71.7433 105.358 72.351 104.75C72.9587 104.142 73.4028 103.044 73.6833 101.455C74.0105 99.8653 74.1974 97.6449 74.2442 94.7935C74.3377 91.8953 74.3143 88.2258 74.1741 83.785C74.2676 83.785 74.3844 83.7383 74.5247 83.6448C74.7116 83.5046 74.8986 83.3643 75.0856 83.2241C75.2726 83.0839 75.4362 82.967 75.5764 82.8735C75.7634 82.7333 75.9036 82.6631 75.9971 82.6631C76.3711 82.6631 76.7217 82.6631 77.0489 82.6632C77.3761 82.6164 77.7033 82.5697 78.0305 82.5229C78.3578 82.4762 78.6382 82.4528 78.872 82.4528C79.0122 85.9587 79.0589 89.0906 79.0122 91.8485C78.9654 94.6065 78.8252 97.0139 78.5915 99.0706C78.4045 101.081 78.0773 102.81 77.6098 104.259C77.1891 105.662 76.6282 106.807 75.927 107.695C75.2258 108.536 74.3844 109.168 73.4028 109.588C72.4211 109.962 71.2291 110.149 69.8268 110.149C68.0505 110.149 66.5079 109.728 65.199 108.887C63.8902 107.999 62.815 106.526 61.9736 104.47C61.1322 102.413 60.5012 99.6082 60.0805 96.0556C59.7065 92.503 59.5195 88.0622 59.5195 82.7333C59.5195 78.4795 59.6364 74.8334 59.8701 71.7949C60.1506 68.7565 60.5713 66.2557 61.1322 64.2924C61.6932 62.2823 62.3943 60.7164 63.2358 59.5945C64.0772 58.4259 65.0588 57.6078 66.1807 57.1404C67.3493 56.6729 68.6582 56.4392 70.1073 56.4392C71.4161 56.4392 72.5614 56.6496 73.543 57.0703C74.5247 57.4442 75.3661 58.0285 76.0673 58.8232C76.8152 59.5711 77.3995 60.5294 77.8202 61.698C78.2876 62.8666 78.6149 64.2456 78.8018 65.835C79.0356 67.3775 79.1524 69.1538 79.1524 71.1639C79.1524 72.0988 79.129 73.0103 79.0823 73.8985C79.0823 74.7399 79.0589 75.6047 79.0122 76.4928C78.685 76.4928 78.311 76.4928 77.8903 76.4928C77.5164 76.4461 77.0956 76.4227 76.6282 76.4227C76.2075 76.4227 75.7634 76.4227 75.296 76.4227C74.8753 76.4227 74.4779 76.4461 74.104 76.4928Z" fill="#FFF9EE"/>
<path d="M48.9901 82.5229C49.4575 82.5229 49.9717 82.5229 50.5327 82.5229C51.1404 82.5229 51.748 82.5229 52.3557 82.5229C53.0102 82.4762 53.6412 82.4528 54.2489 82.4528L51.4442 86.5897C51.1637 86.5897 50.8365 86.5897 50.4626 86.5897C50.1353 86.5897 49.7614 86.5897 49.3407 86.5897C48.9667 86.5897 48.546 86.5897 48.0786 86.5897C47.6579 86.5897 47.2372 86.5897 46.8165 86.5897C46.3957 86.5897 45.975 86.6131 45.5543 86.6598C45.1336 86.6598 44.7363 86.6598 44.3623 86.6598C44.3623 86.5196 44.3623 86.3326 44.3623 86.0989C44.3623 85.8184 44.3623 85.5613 44.3623 85.3276C44.3623 85.0939 44.3623 84.8835 44.3623 84.6966C44.3623 84.2758 44.3623 83.8785 44.3623 83.5046C44.3623 83.0839 44.3623 82.7333 44.3623 82.4528C45.2505 82.4528 46.0919 82.4762 46.8866 82.5229C47.6812 82.5229 48.3824 82.5229 48.9901 82.5229ZM49.4809 76.4928C49.5277 75.8851 49.551 75.2774 49.551 74.6698C49.551 74.0153 49.551 73.4076 49.551 72.8467C49.5978 72.239 49.6212 71.7482 49.6212 71.3742C49.6212 68.6163 49.4575 66.4894 49.1303 64.9935C48.8499 63.4977 48.3824 62.4693 47.728 61.9084C47.1203 61.3007 46.3256 60.9968 45.344 60.9968C44.5026 60.9968 43.7313 61.2773 43.0301 61.8383C42.3757 62.3524 41.7914 63.3575 41.2772 64.8533C40.8097 66.3491 40.4591 68.5462 40.2254 71.4443C39.9917 74.2958 39.8748 78.0588 39.8748 82.7333C39.8748 87.4545 39.9683 91.3343 40.1553 94.3728C40.389 97.3644 40.7162 99.6783 41.1369 101.314C41.6044 102.95 42.1887 104.096 42.8899 104.75C43.591 105.358 44.4091 105.662 45.344 105.662C46.3256 105.662 47.1203 105.358 47.728 104.75C48.3357 104.142 48.7797 103.044 49.0602 101.455C49.3874 99.8653 49.5744 97.6449 49.6211 94.7935C49.7146 91.8953 49.6913 88.2258 49.551 83.785C49.6445 83.785 49.7614 83.7383 49.9016 83.6448C50.0886 83.5046 50.2756 83.3643 50.4626 83.2241C50.6495 83.0839 50.8131 82.967 50.9534 82.8735C51.1404 82.7333 51.2806 82.6631 51.3741 82.6631C51.748 82.6631 52.0986 82.6631 52.4258 82.6632C52.7531 82.6164 53.0803 82.5697 53.4075 82.5229C53.7347 82.4762 54.0152 82.4528 54.2489 82.4528C54.3891 85.9587 54.4359 89.0906 54.3891 91.8485C54.3424 94.6065 54.2022 97.0139 53.9684 99.0706C53.7815 101.081 53.4542 102.81 52.9868 104.259C52.5661 105.662 52.0051 106.807 51.304 107.695C50.6028 108.536 49.7614 109.168 48.7797 109.588C47.7981 109.962 46.6061 110.149 45.2037 110.149C43.4274 110.149 41.8849 109.728 40.576 108.887C39.2671 107.999 38.192 106.526 37.3506 104.47C36.5092 102.413 35.8781 99.6082 35.4574 96.0556C35.0835 92.503 34.8965 88.0622 34.8965 82.7333C34.8965 78.4795 35.0133 74.8334 35.2471 71.7949C35.5275 68.7565 35.9482 66.2557 36.5092 64.2924C37.0701 62.2823 37.7713 60.7164 38.6127 59.5945C39.4541 58.4259 40.4358 57.6078 41.5576 57.1404C42.7263 56.6729 44.0351 56.4392 45.4842 56.4392C46.7931 56.4392 47.9383 56.6496 48.92 57.0703C49.9016 57.4442 50.743 58.0285 51.4442 58.8232C52.1921 59.5711 52.7764 60.5294 53.1971 61.698C53.6646 62.8666 53.9918 64.2456 54.1788 65.835C54.4125 67.3775 54.5294 69.1538 54.5294 71.1639C54.5294 72.0988 54.506 73.0103 54.4593 73.8985C54.4593 74.7399 54.4359 75.6047 54.3891 76.4928C54.0619 76.4928 53.688 76.4928 53.2673 76.4928C52.8933 76.4461 52.4726 76.4227 52.0051 76.4227C51.5844 76.4227 51.1404 76.4227 50.6729 76.4227C50.2522 76.4227 49.8549 76.4461 49.4809 76.4928Z" fill="#FFF9EE"/>
<path d="M30.2588 109.588L25 109.588C25.0467 108.046 25.0701 106.339 25.0701 104.47C25.1169 102.6 25.1402 100.566 25.1402 98.3693C25.1402 96.1723 25.1402 93.8117 25.1402 91.2875C25.1402 88.7632 25.1402 86.0988 25.1402 83.2941C25.1402 80.4894 25.1402 77.8249 25.1402 75.3007C25.1402 72.7764 25.1402 70.4158 25.1402 68.2188C25.1402 65.975 25.1169 63.9183 25.0701 62.0485C25.0701 60.1787 25.0467 58.4958 25 57L30.2588 57C30.2121 58.4958 30.1653 60.1787 30.1186 62.0485C30.1186 63.9183 30.1186 65.9517 30.1186 68.1487C30.1186 70.3457 30.1186 72.7297 30.1186 75.3007C30.1186 77.8249 30.1186 80.4894 30.1186 83.2941C30.1186 86.0988 30.1186 88.7632 30.1186 91.2875C30.1186 93.7649 30.1186 96.1022 30.1186 98.2992C30.1186 100.496 30.1186 102.553 30.1186 104.47C30.1653 106.339 30.2121 108.046 30.2588 109.588Z" fill="#FFF9EE"/>
<path d="M4.92657 85.047L4.99669 80.8399C5.79136 80.8867 6.58602 80.9334 7.38069 80.9802C8.2221 80.9802 8.94664 80.9802 9.55433 80.9802C10.8632 80.9334 11.8916 80.5829 12.6395 79.9284C13.3874 79.274 13.9016 78.2222 14.1821 76.7731C14.5093 75.324 14.6729 73.4309 14.6729 71.0936C14.6729 68.2422 14.5327 66.1153 14.2522 64.7129C13.9717 63.3106 13.4575 62.399 12.7096 61.9783C12.0084 61.5109 11.0034 61.2772 9.69457 61.2772C8.99339 61.2772 8.24547 61.3005 7.45081 61.3473C6.65614 61.3473 5.79136 61.394 4.85646 61.4875L6.18869 59.1736C6.18869 60.2955 6.16532 61.8147 6.11857 63.7313C6.11857 65.6011 6.11857 67.6579 6.11857 69.9016C6.11857 72.0986 6.11857 74.319 6.11857 76.5628C6.11857 78.7598 6.11857 80.8166 6.11857 82.7331C6.11857 84.4627 6.11857 86.4727 6.11857 88.7632C6.11857 91.0537 6.11857 93.391 6.11857 95.775C6.11857 98.159 6.11857 100.426 6.11857 102.576C6.16531 104.68 6.21206 106.433 6.2588 107.835L4.99669 104.96C5.93159 105.054 6.773 105.124 7.52092 105.171C8.31558 105.171 9.04013 105.171 9.69456 105.171C10.7229 105.171 11.5877 105.054 12.2889 104.82C12.9901 104.54 13.5276 104.072 13.9016 103.418C14.3223 102.717 14.6262 101.712 14.8131 100.403C15.0001 99.0471 15.0936 97.3176 15.0936 95.214C15.0936 92.6898 14.93 90.6798 14.6028 89.1839C14.2756 87.6881 13.7146 86.613 12.92 85.9585C12.1253 85.2573 11.0502 84.9068 9.69456 84.9068C9.22711 84.9068 8.73629 84.9301 8.2221 84.9769C7.7079 84.9769 7.17033 84.9769 6.60939 84.9769C6.04845 84.9769 5.48751 85.0002 4.92657 85.047ZM10.4659 109.588L0.999991 109.588C1.14023 106.222 1.21034 102.413 1.21035 98.159C1.21035 93.8584 1.21035 88.9035 1.21035 83.2941C1.21035 79.5545 1.21035 76.0953 1.21035 72.9167C1.21035 69.738 1.18698 66.8164 1.14023 64.152C1.14023 61.4875 1.09349 59.1035 1 57L10.6061 57C12.2422 57 13.6211 57.2104 14.743 57.6311C15.9117 58.005 16.8466 58.6828 17.5477 59.6645C18.2489 60.6461 18.7631 62.0485 19.0903 63.8715C19.4175 65.6946 19.5811 68.0318 19.5811 70.8833C19.5811 72.94 19.4643 74.693 19.2305 76.1421C19.0436 77.5444 18.7163 78.7131 18.2489 79.648C17.8282 80.5361 17.2439 81.2606 16.496 81.8216C15.935 82.289 15.1871 82.6163 14.2522 82.8032C13.364 82.9435 12.3357 83.0603 11.167 83.1538L13.551 82.1021L13.551 83.9952L11.167 83.0136C12.3357 83.1071 13.3407 83.2006 14.1821 83.2941C15.0702 83.3408 15.8182 83.5745 16.4258 83.9952C17.2673 84.4627 17.9451 85.1872 18.4592 86.1689C18.9734 87.1505 19.3474 88.436 19.5811 90.0253C19.8149 91.5679 19.9317 93.4845 19.9317 95.775C19.9317 98.5329 19.7681 100.823 19.4409 102.646C19.1137 104.423 18.5761 105.825 17.8282 106.854C17.0803 107.835 16.0986 108.536 14.8833 108.957C13.7146 109.378 12.2422 109.588 10.4659 109.588Z" fill="#FFF9EE"/>
<path d="M51.3918 33.9369C51.8125 33.9369 52.3033 33.9602 52.8643 34.007C53.4252 34.007 54.0095 34.007 54.6172 34.007C55.2716 34.007 55.8793 34.007 56.4403 34.007C57.048 34.007 57.5622 34.007 57.9829 34.007C58.4503 34.007 58.9645 34.007 59.5254 34.007C60.0864 34.007 60.6707 34.007 61.2784 34.007C61.8861 34.007 62.4704 34.007 63.0313 34.007C63.5923 33.9602 64.1065 33.9369 64.5739 33.9369L64.644 38.214C64.1298 38.214 63.5689 38.214 62.9612 38.214C62.4003 38.1673 61.8159 38.1439 61.2083 38.1439C60.6006 38.1439 60.0163 38.1439 59.4553 38.1439C58.9411 38.1439 58.4503 38.1439 57.9829 38.1439C57.5622 38.1439 57.0713 38.1439 56.5104 38.1439C55.9494 38.1439 55.3418 38.1439 54.6873 38.1439C54.0796 38.1439 53.472 38.1673 52.8643 38.214C52.3033 38.214 51.7658 38.214 51.2516 38.214L51.3918 33.9369ZM69.2718 52.5881L63.6624 52.5881C63.6156 51.7467 63.4988 50.5313 63.3118 48.942C63.1715 47.3059 62.9846 45.4361 62.7508 43.3326C62.5171 41.1823 62.26 38.8685 61.9795 36.391C61.6991 33.9135 61.3952 31.3893 61.068 28.8183C60.7876 26.2006 60.4837 23.653 60.1565 21.1755C59.876 18.6513 59.6189 16.314 59.3852 14.1637C59.1515 12.1537 58.9178 10.3774 58.684 8.83481C58.4971 7.29222 58.3334 5.93662 58.1932 4.76799C58.0997 3.55262 58.0062 2.54761 57.9127 1.75294L58.8243 3.43576L57.0713 3.43576L57.9829 1.75294C57.9361 2.54761 57.8426 3.52925 57.7024 4.69788C57.5622 5.8665 57.3752 7.24548 57.1414 8.83481C56.9545 10.4241 56.7207 12.2238 56.4403 14.2339C56.1598 16.8516 55.8326 19.6796 55.4586 22.7181C55.1314 25.7097 54.7808 28.7248 54.4069 31.7632C54.0796 34.8016 53.7524 37.6998 53.4252 40.4578C53.1447 43.169 52.8876 45.5764 52.6539 47.6799C52.4202 49.7834 52.2566 51.4195 52.1631 52.5881L46.9043 52.5881C47.1848 50.8118 47.512 48.6382 47.8859 46.0672C48.2599 43.4962 48.6572 40.6915 49.0779 37.6531C49.4986 34.6147 49.9193 31.5061 50.34 28.3275C50.7608 25.1021 51.1815 21.9701 51.6022 18.9317C52.0229 15.8466 52.3968 13.0185 52.724 10.4475C53.098 7.82979 53.4019 5.6094 53.6356 3.78635C53.8693 1.96329 54.0329 0.701178 54.1264 1.26275e-06L61.9094 2.62358e-06C62.0029 0.747924 62.1665 2.03341 62.4003 3.85646C62.6807 5.63278 62.9846 7.82979 63.3118 10.4475C63.6857 13.0185 64.0597 15.8232 64.4337 18.8616C64.8544 21.9 65.2751 25.0086 65.6958 28.1872C66.1632 31.3659 66.6073 34.4744 67.028 37.5129C67.4955 40.5513 67.9162 43.3794 68.2901 45.9971C68.6641 48.6148 68.9913 50.8118 69.2718 52.5881Z" fill="#FFF9EE"/>
</svg>
